<?xml version="1.0" encoding="UTF-8" standalone="no"?>
<svg
   xmlns:dc="http://purl.org/dc/elements/1.1/"
   xmlns:cc="http://creativecommons.org/ns#"
   xmlns:rdf="http://www.w3.org/1999/02/22-rdf-syntax-ns#"
   xmlns:svg="http://www.w3.org/2000/svg"
   xmlns="http://www.w3.org/2000/svg"
   xmlns:sodipodi="http://sodipodi.sourceforge.net/DTD/sodipodi-0.dtd"
   xmlns:inkscape="http://www.inkscape.org/namespaces/inkscape"
   width="100"
   height="97"
   stroke-miterlimit="10"
   style="stroke-miterlimit:10"
   id="svg3069"
   version="1.1"
   inkscape:version="0.48.4 r9939"
   sodipodi:docname="logo-v1.svg">
  <metadata
     id="metadata3151">
    <rdf:RDF>
      <cc:Work
         rdf:about="">
        <dc:format>image/svg+xml</dc:format>
        <dc:type
           rdf:resource="http://purl.org/dc/dcmitype/StillImage" />
      </cc:Work>
    </rdf:RDF>
  </metadata>
  <sodipodi:namedview
     pagecolor="#ffffff"
     bordercolor="#666666"
     borderopacity="1"
     objecttolerance="10"
     gridtolerance="10"
     guidetolerance="10"
     inkscape:pageopacity="0"
     inkscape:pageshadow="2"
     inkscape:window-width="640"
     inkscape:window-height="480"
     id="namedview3149"
     showgrid="false"
     fit-margin-top="1"
     fit-margin-left="1"
     fit-margin-right="1"
     fit-margin-bottom="1"
     inkscape:zoom="1.9666667"
     inkscape:cx="51"
     inkscape:cy="41"
     inkscape:window-x="2152"
     inkscape:window-y="385"
     inkscape:window-maximized="0"
     inkscape:current-layer="svg3069" />
  <defs
     id="defs3071">
    <clipPath
       id="clip135"
       clipPathUnits="userSpaceOnUse">
      <path
         d="m 45,-10 a 45,45 0 0 1 -90,0 45,45 0 0 1 90,0 z"
         id="path3074"
         inkscape:connector-curvature="0" />
    </clipPath>
    <radialGradient
       id="fill137"
       gradientUnits="userSpaceOnUse"
       cx="0"
       cy="0"
       r="55"
       fx="0"
       fy="0">
      <stop
         offset="0.2"
         style="stop-color: rgb(231,225,120); stop-opacity: 1.0;"
         id="stop3077" />
      <stop
         offset="0.6"
         style="stop-color: rgb(184,79,118); stop-opacity: 1.0;"
         id="stop3079" />
      <stop
         offset="1"
         style="stop-color: rgb(35,49,128); stop-opacity: 1.0;"
         id="stop3081" />
    </radialGradient>
    <radialGradient
       id="fill138"
       gradientUnits="userSpaceOnUse"
       cx="0"
       cy="0"
       r="55"
       fx="0"
       fy="0">
      <stop
         offset="0.2"
         style="stop-color: rgb(231,225,120); stop-opacity: 0.29999999999999998890;"
         id="stop3084" />
      <stop
         offset="1"
         style="stop-color: rgb(184,79,118); stop-opacity: 0.69999999999999995559;"
         id="stop3086" />
    </radialGradient>
    <radialGradient
       id="fill139"
       gradientUnits="userSpaceOnUse"
       cx="-34"
       cy="6"
       r="55"
       fx="-34"
       fy="6">
      <stop
         offset="0"
         style="stop-color: rgb(204,204,204); stop-opacity: 1.0;"
         id="stop3089" />
      <stop
         offset="1"
         style="stop-color: rgb(119,119,119); stop-opacity: 1.0;"
         id="stop3091" />
    </radialGradient>
    <radialGradient
       id="fill142"
       gradientUnits="userSpaceOnUse"
       cx="-20"
       cy="13"
       r="55"
       fx="-20"
       fy="13">
      <stop
         offset="0"
         style="stop-color: rgb(238,238,238); stop-opacity: 1.0;"
         id="stop3094" />
      <stop
         offset="1"
         style="stop-color: rgb(153,153,153); stop-opacity: 1.0;"
         id="stop3096" />
    </radialGradient>
    <radialGradient
       id="fill136"
       gradientUnits="userSpaceOnUse"
       cx="0"
       cy="-10"
       r="55"
       fx="0"
       fy="-10">
      <stop
         offset="0"
         style="stop-color: rgb(82,160,57); stop-opacity: 1.0;"
         id="stop3099" />
      <stop
         offset="0.5"
         style="stop-color: rgb(65,135,37); stop-opacity: 1.0;"
         id="stop3101" />
      <stop
         offset="0.8"
         style="stop-color: rgb(52,111,24); stop-opacity: 1.0;"
         id="stop3103" />
      <stop
         offset="1"
         style="stop-color: rgb(39,86,17); stop-opacity: 1.0;"
         id="stop3105" />
    </radialGradient>
  </defs>
  <g
     id="g3107"
     transform="translate(-9,-4)">
    <g
       transform="translate(60,60)"
       id="g3109">
      <g
         id="g3111">
        <g
           clip-path="url(#clip135)"
           id="g3113">
          <g
             id="g3115">
            <path
               d="m 45,-10 a 45,45 0 0 1 -90,0 45,45 0 0 1 90,0 z"
               style="fill:url(#fill137);stroke:none"
               id="path3117"
               inkscape:connector-curvature="0" />
          </g>
          <g
             id="g3119">
            <path
               d="M 0,0 55,0 A 55,55 0 0 1 53.94319,10.729968 L 0,0 50.813374,21.047589 a 55,55 0 0 1 -5.082545,9.508774 L 0,0 38.890873,38.890873 a 55,55 0 0 1 -8.33451,6.839956 L 0,0 21.047589,50.813374 A 55,55 0 0 1 10.729968,53.94319 L 0,0 0,55 A 55,55 0 0 1 -10.729968,53.94319 L 0,0 -21.047589,50.813374 a 55,55 0 0 1 -9.508774,-5.082545 L 0,0 -38.890873,38.890873 a 55,55 0 0 1 -6.839956,-8.33451 L 0,0 -50.813374,21.047589 A 55,55 0 0 1 -53.94319,10.729968 L 0,0 -55,0 a 55,55 0 0 1 1.05681,-10.729968 L 0,0 -50.813374,-21.047589 a 55,55 0 0 1 5.082545,-9.508774 L 0,0 -38.890873,-38.890873 a 55,55 0 0 1 8.33451,-6.839956 L 0,0 -21.047589,-50.813374 a 55,55 0 0 1 10.317621,-3.129816 L 0,0 0,-55 a 55,55 0 0 1 10.729968,1.05681 L 0,0 21.047589,-50.813374 a 55,55 0 0 1 9.508774,5.082545 L 0,0 38.890873,-38.890873 a 55,55 0 0 1 6.839956,8.33451 L 0,0 50.813374,-21.047589 a 55,55 0 0 1 3.129816,10.317621 L 0,0 z"
               style="fill:url(#fill138);stroke:none"
               id="path3121"
               inkscape:connector-curvature="0" />
          </g>
          <g
             id="g3123">
            <g
               transform="matrix(0.7,0,0,0.7,34,-6)"
               id="g3125">
              <path
                 d="M -70,70 0,0 70,70 z"
                 style="fill:url(#fill139);stroke:none"
                 id="path3127"
                 inkscape:connector-curvature="0" />
            </g>
            <g
               transform="matrix(0.7,0,0,0.7,34,-6)"
               id="g3129">
              <path
                 d="M 0,0 10,10 3,7 0,10 -3,7 l -7,3 z"
                 style="fill:#ffffff;stroke:none"
                 id="path3131"
                 inkscape:connector-curvature="0" />
            </g>
          </g>
          <g
             id="g3133">
            <g
               transform="translate(20,-13)"
               id="g3135">
              <path
                 d="M -70,70 0,0 70,70 z"
                 style="fill:url(#fill142);stroke:none"
                 id="path3137"
                 inkscape:connector-curvature="0" />
            </g>
            <g
               transform="translate(20,-13)"
               id="g3139">
              <path
                 d="M 0,0 10,10 3,7 0,10 -3,7 l -7,3 z"
                 style="fill:#ffffff;stroke:none"
                 id="path3141"
                 inkscape:connector-curvature="0" />
            </g>
          </g>
        </g>
        <g
           id="g3143">
          <path
             d="m -50,0 q 25,-23 50,4 25,27 47.552826,8.36068 A 50,40 0 0 1 -50,0 z"
             style="fill:url(#fill136);stroke-width:1;stroke-linecap:butt;stroke-linejoin:miter"
             id="path3145"
             inkscape:connector-curvature="0" />
        </g>
      </g>
      <g
         transform="translate(68.016075,15.144297)"
         id="g3147" />
    </g>
  </g>
</svg>