<?xml version="1.0" encoding="utf-8"?>
<!-- Generator: Adobe Illustrator 16.0.3, SVG Export Plug-In . SVG Version: 6.00 Build 0)  -->
<!DOCTYPE svg PUBLIC "-//W3C//DTD SVG 1.1//EN" "http://www.w3.org/Graphics/SVG/1.1/DTD/svg11.dtd">
<svg version="1.1" xmlns="http://www.w3.org/2000/svg" xmlns:xlink="http://www.w3.org/1999/xlink" x="0px" y="0px"
	 width="864.445px" height="197.778px" viewBox="0 0 864.445 197.778" enable-background="new 0 0 864.445 197.778"
	 xml:space="preserve">
<g id="Layer_2">
	<rect x="137.778" y="46.779" fill="#CCCCCC" width="41" height="147"/>
	<rect x="258.778" y="46.779" fill="#CCCCCC" width="41" height="147"/>
	<rect x="339.778" y="46.779" fill="#CCCCCC" width="41" height="147"/>
	<rect x="498.778" y="45.779" fill="#CCCCCC" width="41" height="148"/>
	<rect x="578.778" y="45.779" fill="#CCCCCC" width="41" height="148"/>
	<rect x="818.778" y="45.779" fill="#CCCCCC" width="41" height="148"/>
	<rect x="698.778" y="45.779" fill="#CCCCCC" width="79" height="148"/>
</g>
<g id="Layer_1">
	<g>
		<circle fill="#FFFFFF" stroke="#FF00FF" stroke-miterlimit="10" cx="519.507" cy="61.859" r="10.632"/>
		<text transform="matrix(1 0 0 1 516.0278 65.3813)" fill="#534741" font-family="'MyriadPro-Regular'" font-size="12">C</text>
	</g>
	<g>
		<circle fill="#FFFFFF" stroke="#39B54A" stroke-miterlimit="10" cx="599.419" cy="61.859" r="10.632"/>
		<text transform="matrix(1 0 0 1 595.9399 65.3813)" fill="#534741" font-family="'MyriadPro-Regular'" font-size="12">C</text>
	</g>
	<g>
		<circle fill="#FFFFFF" stroke="#000000" stroke-miterlimit="10" cx="759.242" cy="61.359" r="10.632"/>
		<text transform="matrix(1 0 0 1 756.2847 64.8813)" fill="#534741" font-family="'MyriadPro-Regular'" font-size="12">S</text>
	</g>
	<g>
		<circle fill="#FFFFFF" stroke="#000000" stroke-miterlimit="10" cx="159.904" cy="61.859" r="10.632"/>
		<text transform="matrix(1 0 0 1 156.4243 65.3813)" fill="#534741" font-family="'MyriadPro-Regular'" font-size="12">C</text>
	</g>
	<g>
		<circle fill="#FFFFFF" stroke="#000000" stroke-miterlimit="10" cx="159.904" cy="120.859" r="10.632"/>
		<text transform="matrix(1 0 0 1 156.9463 124.3813)" fill="#534741" font-family="'MyriadPro-Regular'" font-size="12">S</text>
	</g>
	<g>
		<circle fill="#FFFFFF" stroke="#FF00FF" stroke-miterlimit="10" cx="279.772" cy="120.859" r="10.632"/>
		<text transform="matrix(1 0 0 1 276.292 124.3813)" fill="#534741" font-family="'MyriadPro-Regular'" font-size="12">C</text>
	</g>
	<g>
		<circle fill="#FFFFFF" stroke="#000000" stroke-miterlimit="10" cx="359.684" cy="120.859" r="10.632"/>
		<text transform="matrix(1 0 0 1 356.2036 124.3813)" fill="#534741" font-family="'MyriadPro-Regular'" font-size="12">C</text>
	</g>
	<g>
		<circle fill="#FFFFFF" stroke="#000000" stroke-miterlimit="10" cx="719.287" cy="61.859" r="10.632"/>
		<text transform="matrix(1 0 0 1 715.8071 65.3813)" fill="#534741" font-family="'MyriadPro-Regular'" font-size="12">C</text>
	</g>
	<g>
		<circle fill="#FFFFFF" stroke="#39B54A" stroke-miterlimit="10" cx="719.287" cy="120.859" r="10.632"/>
		<text transform="matrix(1 0 0 1 715.8071 124.3813)" fill="#534741" font-family="'MyriadPro-Regular'" font-size="12">C</text>
	</g>
	<g>
		<circle fill="#FFFFFF" stroke="#000000" stroke-miterlimit="10" cx="839.154" cy="120.859" r="10.632"/>
		<text transform="matrix(1 0 0 1 835.6743 124.3813)" fill="#534741" font-family="'MyriadPro-Regular'" font-size="12">C</text>
	</g>
	<g>
		<circle fill="#FFFFFF" stroke="#000000" stroke-miterlimit="10" cx="199.86" cy="91.359" r="10.632"/>
		<text transform="matrix(1 0 0 1 196.9023 95.2563)" fill="#534741" font-family="'MyriadPro-Regular'" font-size="12">S</text>
	</g>
	<g>
		<circle fill="#FFFFFF" stroke="#000000" stroke-miterlimit="10" cx="239.816" cy="91.359" r="10.632"/>
		<text transform="matrix(1 0 0 1 236.8579 95.2563)" fill="#534741" font-family="'MyriadPro-Regular'" font-size="12">S</text>
	</g>
	<g>
		<circle fill="#FFFFFF" stroke="#000000" stroke-miterlimit="10" cx="319.728" cy="91.359" r="10.632"/>
		<text transform="matrix(1 0 0 1 316.77 95.2563)" fill="#534741" font-family="'MyriadPro-Regular'" font-size="12">S</text>
	</g>
	<g>
		<circle fill="#FFFFFF" stroke="#000000" stroke-miterlimit="10" cx="399.64" cy="91.359" r="10.632"/>
		<text transform="matrix(1 0 0 1 396.6816 95.2563)" fill="#534741" font-family="'MyriadPro-Regular'" font-size="12">S</text>
	</g>
	<g>
		<circle fill="#FFFFFF" stroke="#000000" stroke-miterlimit="10" cx="439.596" cy="90.859" r="10.632"/>
		<text transform="matrix(1 0 0 1 436.1157 94.7563)" fill="#534741" font-family="'MyriadPro-Regular'" font-size="12">C</text>
	</g>
	<g>
		<circle fill="#FFFFFF" stroke="#000000" stroke-miterlimit="10" cx="559.463" cy="90.359" r="10.632"/>
		<text transform="matrix(1 0 0 1 556.5044 94.2563)" fill="#534741" font-family="'MyriadPro-Regular'" font-size="12">S</text>
	</g>
	<g>
		<circle fill="#FFFFFF" stroke="#000000" stroke-miterlimit="10" cx="679.331" cy="90.359" r="10.632"/>
		<text transform="matrix(1 0 0 1 676.3726 94.2563)" fill="#534741" font-family="'MyriadPro-Regular'" font-size="12">S</text>
	</g>
	<g>
		<circle fill="#FFFFFF" stroke="#000000" stroke-miterlimit="10" cx="479.551" cy="90.359" r="10.633"/>
		<text transform="matrix(1 0 0 1 476.5933 94.2563)" fill="#534741" font-family="'MyriadPro-Regular'" font-size="12">S</text>
	</g>
	<g>
		<circle fill="#FFFFFF" stroke="#000000" stroke-miterlimit="10" cx="799.199" cy="90.359" r="10.632"/>
		<text transform="matrix(1 0 0 1 796.2407 94.2563)" fill="#534741" font-family="'MyriadPro-Regular'" font-size="12">S</text>
	</g>
	<g>
		<circle fill="#FFFFFF" stroke="#000000" stroke-miterlimit="10" cx="639.375" cy="90.359" r="10.632"/>
		<text transform="matrix(1 0 0 1 636.4165 94.2563)" fill="#534741" font-family="'MyriadPro-Regular'" font-size="12">S</text>
	</g>
	<g>
		<line fill="#534741" stroke="#FF0000" stroke-miterlimit="10" x1="168.521" y1="68.07" x2="191.397" y2="84.942"/>
		<line fill="#534741" stroke="#FF0000" stroke-miterlimit="10" x1="210.778" y1="88.279" x2="228.778" y2="88.279"/>
		<line fill="#534741" stroke="#FF0000" stroke-miterlimit="10" x1="249.778" y1="88.279" x2="308.778" y2="88.279"/>
		<line fill="#534741" stroke="#FF0000" stroke-miterlimit="10" x1="330.778" y1="88.279" x2="388.778" y2="88.279"/>
		<line fill="#534741" stroke="#FF0000" stroke-miterlimit="10" x1="409.778" y1="88.279" x2="428.778" y2="88.279"/>
		<line fill="#534741" stroke="#FF0000" stroke-miterlimit="10" x1="449.778" y1="88.279" x2="468.778" y2="88.279"/>
		<line fill="#534741" stroke="#FF0000" stroke-miterlimit="10" x1="489.855" y1="87.779" x2="510.889" y2="68.07"/>
		<line fill="#534741" stroke="#FF0000" stroke-miterlimit="10" x1="528.125" y1="68.07" x2="549.159" y2="87.779"/>
		<line fill="#534741" stroke="#FF0000" stroke-miterlimit="10" x1="569.766" y1="87.779" x2="590.8" y2="68.07"/>
		<line fill="#534741" stroke="#FF0000" stroke-miterlimit="10" x1="610.051" y1="68.07" x2="629.071" y2="87.779"/>
		<line fill="#534741" stroke="#FF0000" stroke-miterlimit="10" x1="649.778" y1="88.279" x2="668.778" y2="88.279"/>
		<line fill="#534741" stroke="#FF0000" stroke-miterlimit="10" x1="689.963" y1="87.779" x2="710.669" y2="68.07"/>
		<line fill="#534741" stroke="#FF0000" stroke-miterlimit="10" x1="727.778" y1="68.279" x2="750.778" y2="68.279"/>
		<line fill="#534741" stroke="#FF0000" stroke-miterlimit="10" x1="767.704" y1="67.779" x2="788.567" y2="87.779"/>
	</g>
	<g>
		<line fill="#534741" stroke="#0000FF" stroke-miterlimit="10" x1="168.521" y1="114.648" x2="189.792" y2="94.756"/>
		<line fill="#534741" stroke="#0000FF" stroke-miterlimit="10" x1="210.778" y1="95.279" x2="228.778" y2="95.279"/>
		<line fill="#534741" stroke="#0000FF" stroke-miterlimit="10" x1="249.876" y1="94.779" x2="271.155" y2="114.648"/>
		<line fill="#534741" stroke="#0000FF" stroke-miterlimit="10" x1="288.389" y1="114.648" x2="308.778" y2="94.779"/>
		<line fill="#534741" stroke="#0000FF" stroke-miterlimit="10" x1="329.613" y1="95.256" x2="351.066" y2="114.648"/>
		<line fill="#534741" stroke="#0000FF" stroke-miterlimit="10" x1="368.301" y1="114.648" x2="389.75" y2="95.256"/>
		<line fill="#534741" stroke="#0000FF" stroke-miterlimit="10" x1="409.778" y1="95.279" x2="429.778" y2="95.279"/>
		<line fill="#534741" stroke="#0000FF" stroke-miterlimit="10" x1="449.778" y1="94.279" x2="468.778" y2="94.279"/>
		<line fill="#534741" stroke="#0000FF" stroke-miterlimit="10" x1="489.778" y1="94.279" x2="548.778" y2="94.279"/>
		<line fill="#534741" stroke="#0000FF" stroke-miterlimit="10" x1="569.778" y1="94.279" x2="629.778" y2="94.279"/>
		<line fill="#534741" stroke="#0000FF" stroke-miterlimit="10" x1="649.778" y1="94.279" x2="668.778" y2="94.279"/>
		<line fill="#534741" stroke="#0000FF" stroke-miterlimit="10" x1="689.963" y1="93.779" x2="710.669" y2="114.648"/>
		<line fill="#534741" stroke="#0000FF" stroke-miterlimit="10" x1="727.911" y1="114.648" x2="788.567" y2="93.779"/>
		<line fill="#534741" stroke="#0000FF" stroke-miterlimit="10" x1="809.831" y1="95.256" x2="830.537" y2="114.648"/>
	</g>
	<rect x="138.278" y="32.279" fill="#FFFFFF" stroke="#FF0000" stroke-miterlimit="10" width="41" height="14"/>
	<text transform="matrix(1 0 0 1 141.8125 42.7271)" font-family="'MyriadPro-Regular'" font-size="12">Canvas</text>
	<rect x="183.278" y="32.279" fill="#FFFFFF" stroke="#FF0000" stroke-miterlimit="10" width="231" height="14"/>
	<text transform="matrix(1 0 0 1 279.2778 42.7271)" font-family="'MyriadPro-Regular'" font-size="12">SVG</text>
	<rect x="419.278" y="32.279" fill="#FFFFFF" stroke="#FF0000" stroke-miterlimit="10" width="41" height="14"/>
	<text transform="matrix(1 0 0 1 422.8125 42.7271)" font-family="'MyriadPro-Regular'" font-size="12">Canvas</text>
	<rect x="463.278" y="32.279" fill="#FFFFFF" stroke="#FF0000" stroke-miterlimit="10" width="34" height="14"/>
	<text transform="matrix(1 0 0 1 468.9185 42.7271)" font-family="'MyriadPro-Regular'" font-size="12">SVG</text>
	<rect x="499.278" y="32.279" fill="#FFFFFF" stroke="#FF0000" stroke-miterlimit="10" width="41" height="14"/>
	<text transform="matrix(1 0 0 1 502.813 42.7271)" font-family="'MyriadPro-Regular'" font-size="12">Canvas</text>
	<rect x="542.278" y="32.279" fill="#FFFFFF" stroke="#FF0000" stroke-miterlimit="10" width="34" height="14"/>
	<text transform="matrix(1 0 0 1 547.9185 42.7271)" font-family="'MyriadPro-Regular'" font-size="12">SVG</text>
	<rect x="579.278" y="32.279" fill="#FFFFFF" stroke="#FF0000" stroke-miterlimit="10" width="41" height="14"/>
	<text transform="matrix(1 0 0 1 582.813 42.7271)" font-family="'MyriadPro-Regular'" font-size="12">Canvas</text>
	<rect x="624.278" y="32.279" fill="#FFFFFF" stroke="#FF0000" stroke-miterlimit="10" width="69" height="14"/>
	<text transform="matrix(1 0 0 1 647.9185 42.7271)" font-family="'MyriadPro-Regular'" font-size="12">SVG</text>
	<rect x="699.278" y="32.279" fill="#FFFFFF" stroke="#FF0000" stroke-miterlimit="10" width="41" height="14"/>
	<text transform="matrix(1 0 0 1 702.813 42.7271)" font-family="'MyriadPro-Regular'" font-size="12">Canvas</text>
	<rect x="743.278" y="32.279" fill="#FFFFFF" stroke="#FF0000" stroke-miterlimit="10" width="69" height="14"/>
	<text transform="matrix(1 0 0 1 766.9185 42.7271)" font-family="'MyriadPro-Regular'" font-size="12">SVG</text>
	<rect x="138.278" y="138.279" fill="#FFFFFF" stroke="#0000FF" stroke-miterlimit="10" width="118" height="14"/>
	<text transform="matrix(1 0 0 1 191.397 148.7271)" font-family="'MyriadPro-Regular'" font-size="12">SVG</text>
	<rect x="258.278" y="138.279" fill="#FFFFFF" stroke="#0000FF" stroke-miterlimit="10" width="41" height="14"/>
	<text transform="matrix(1 0 0 1 261.8125 148.7271)" font-family="'MyriadPro-Regular'" font-size="12">Canvas</text>
	<rect x="302.278" y="138.279" fill="#FFFFFF" stroke="#0000FF" stroke-miterlimit="10" width="34" height="14"/>
	<text transform="matrix(1 0 0 1 307.9189 148.7271)" font-family="'MyriadPro-Regular'" font-size="12">SVG</text>
	<rect x="340.278" y="138.279" fill="#FFFFFF" stroke="#0000FF" stroke-miterlimit="10" width="41" height="14"/>
	<text transform="matrix(1 0 0 1 343.8125 148.7271)" font-family="'MyriadPro-Regular'" font-size="12">Canvas</text>
	<rect x="382.278" y="138.279" fill="#FFFFFF" stroke="#0000FF" stroke-miterlimit="10" width="34" height="14"/>
	<text transform="matrix(1 0 0 1 387.9189 148.7271)" font-family="'MyriadPro-Regular'" font-size="12">SVG</text>
	<rect x="419.278" y="138.279" fill="#FFFFFF" stroke="#0000FF" stroke-miterlimit="10" width="41" height="14"/>
	<text transform="matrix(1 0 0 1 422.8125 148.7271)" font-family="'MyriadPro-Regular'" font-size="12">Canvas</text>
	<rect x="463.278" y="138.279" fill="#FFFFFF" stroke="#0000FF" stroke-miterlimit="10" width="231" height="14"/>
	<text transform="matrix(1 0 0 1 559.2778 148.7271)" font-family="'MyriadPro-Regular'" font-size="12">SVG</text>
	<rect x="699.278" y="138.279" fill="#FFFFFF" stroke="#0000FF" stroke-miterlimit="10" width="79" height="14"/>
	<text transform="matrix(1 0 0 1 722.354 148.7271)" font-family="'MyriadPro-Regular'" font-size="12">Canvas</text>
	<rect x="782.278" y="138.279" fill="#FFFFFF" stroke="#0000FF" stroke-miterlimit="10" width="34" height="14"/>
	<text transform="matrix(1 0 0 1 787.9185 148.7271)" font-family="'MyriadPro-Regular'" font-size="12">SVG</text>
	<rect x="818.278" y="138.279" fill="#FFFFFF" stroke="#0000FF" stroke-miterlimit="10" width="41" height="14"/>
	<text transform="matrix(1 0 0 1 821.813 148.7271)" font-family="'MyriadPro-Regular'" font-size="12">Canvas</text>
	<text transform="matrix(1 0 0 1 138.2778 176.4438)"><tspan x="0" y="0" font-family="'MyriadPro-Regular'" font-size="12">Change</tspan><tspan x="0" y="14.4" font-family="'MyriadPro-Regular'" font-size="12">Interval</tspan></text>
	<text transform="matrix(1 0 0 1 259.2778 176.4438)"><tspan x="0" y="0" font-family="'MyriadPro-Regular'" font-size="12">Change</tspan><tspan x="0" y="14.4" font-family="'MyriadPro-Regular'" font-size="12">Interval</tspan></text>
	<text transform="matrix(1 0 0 1 340.2778 176.4438)"><tspan x="0" y="0" font-family="'MyriadPro-Regular'" font-size="12">Change</tspan><tspan x="0" y="14.4" font-family="'MyriadPro-Regular'" font-size="12">Interval</tspan></text>
	<text transform="matrix(1 0 0 1 500.3726 176.4438)"><tspan x="0" y="0" font-family="'MyriadPro-Regular'" font-size="12">Change</tspan><tspan x="0" y="14.4" font-family="'MyriadPro-Regular'" font-size="12">Interval</tspan></text>
	<text transform="matrix(1 0 0 1 579.2778 176.4438)"><tspan x="0" y="0" font-family="'MyriadPro-Regular'" font-size="12">Change</tspan><tspan x="0" y="14.4" font-family="'MyriadPro-Regular'" font-size="12">Interval</tspan></text>
	<text transform="matrix(1 0 0 1 719.2876 176.4438)"><tspan x="0" y="0" font-family="'MyriadPro-Regular'" font-size="12">Change</tspan><tspan x="0" y="14.4" font-family="'MyriadPro-Regular'" font-size="12">Interval</tspan></text>
	<text transform="matrix(1 0 0 1 818.2778 176.4438)"><tspan x="0" y="0" font-family="'MyriadPro-Regular'" font-size="12">Change</tspan><tspan x="0" y="14.4" font-family="'MyriadPro-Regular'" font-size="12">Interval</tspan></text>
	<text transform="matrix(1 0 0 1 140.5488 13.5342)"><tspan x="0" y="0" font-family="'MyriadPro-Regular'" font-size="12">Internal</tspan><tspan x="5.892" y="14.4" font-family="'MyriadPro-Regular'" font-size="12">Block</tspan></text>
	<text transform="matrix(1 0 0 1 499.9224 13.5342)"><tspan x="0" y="0" font-family="'MyriadPro-Regular'" font-size="12">Internal</tspan><tspan x="5.891" y="14.4" font-family="'MyriadPro-Regular'" font-size="12">Block</tspan></text>
	<text transform="matrix(1 0 0 1 580.063 13.5342)"><tspan x="0" y="0" font-family="'MyriadPro-Regular'" font-size="12">Internal</tspan><tspan x="5.891" y="14.4" font-family="'MyriadPro-Regular'" font-size="12">Block</tspan></text>
	<text transform="matrix(1 0 0 1 699.9321 13.5342)"><tspan x="0" y="0" font-family="'MyriadPro-Regular'" font-size="12">Internal</tspan><tspan x="5.891" y="14.4" font-family="'MyriadPro-Regular'" font-size="12">Block</tspan></text>
	<text transform="matrix(1 0 0 1 4.7778 42.7271)" fill="#FF0000" font-family="'MyriadPro-Regular'" font-size="12">Previous frame’s blocks</text>
	<text transform="matrix(1 0 0 1 4.7778 148.7271)" fill="#0000FF" font-family="'MyriadPro-Regular'" font-size="12">Next frame’s blocks</text>
	<line fill="#534741" stroke="#FF0000" stroke-miterlimit="10" x1="4.778" y1="80.279" x2="23.778" y2="80.279"/>
	<text transform="matrix(1 0 0 1 35.353 83.4312)" fill="#FF0000" font-family="'MyriadPro-Regular'" font-size="12">Previous linked list</text>
	<line fill="#534741" stroke="#0000FF" stroke-miterlimit="10" x1="4.778" y1="97.279" x2="23.778" y2="97.279"/>
	<text transform="matrix(1 0 0 1 35.353 100.4312)" fill="#0000FF" font-family="'MyriadPro-Regular'" font-size="12">Next linked list</text>
</g>
</svg>
